<?xml version="1.0" standalone="no"?>
<!DOCTYPE svg PUBLIC "-//W3C//DTD SVG 20010904//EN"
 "http://www.w3.org/TR/2001/REC-SVG-20010904/DTD/svg10.dtd">
<svg version="1.0" xmlns="http://www.w3.org/2000/svg"
 width="1280.000000pt" height="690.000000pt" viewBox="0 0 1280.000000 690.000000"
 preserveAspectRatio="xMidYMid meet">

<g transform="translate(0.000000,690.000000) scale(0.100000,-0.100000)"
fill="#000000" stroke="none">
<path d="M7175 6863 c-102 -3 -111 -5 -130 -27 -16 -20 -33 -26 -95 -33 l-75
-8 -3 -72 -3 -73 84 0 c68 0 86 -3 91 -16 8 -21 8 -2419 -1 -2562 -7 -130 -8
-130 -73 -7 -83 157 -79 151 -124 161 -24 6 -101 6 -186 2 -80 -5 -210 -9
-290 -11 l-145 -2 -25 46 c-14 25 -38 60 -53 79 -44 51 -59 89 -53 125 5 25
22 43 86 88 178 128 233 269 128 323 -25 13 -49 15 -112 11 -198 -14 -478
-149 -637 -307 -90 -90 -120 -163 -89 -221 33 -61 167 -65 331 -8 l97 33 26
-30 c28 -30 86 -145 86 -170 0 -7 -12 -21 -27 -30 -112 -68 -163 -106 -163
-122 0 -14 194 -474 435 -1029 31 -73 55 -140 51 -148 -7 -19 -118 -21 -133
-2 -6 6 -16 49 -23 94 -7 45 -18 90 -24 99 -10 13 -49 19 -196 30 -101 7 -187
17 -191 21 -5 5 -10 195 -11 422 l-3 414 -28 21 c-27 20 -41 21 -215 21 -103
0 -232 -2 -287 -5 l-100 -5 -3 28 c-4 32 15 60 35 53 22 -9 15 12 -23 72 -90
139 -225 200 -386 172 -53 -9 -82 -9 -154 4 -161 28 -209 48 -324 136 -58 44
-119 91 -136 103 -17 12 -62 46 -99 75 -37 28 -71 52 -76 52 -4 0 -10 -48 -13
-107 -3 -60 -10 -157 -14 -218 l-9 -110 30 -32 c37 -39 31 -49 -18 -33 -26 9
-44 9 -67 1 -35 -12 -66 2 -40 18 9 6 -18 28 -87 71 -55 34 -108 70 -118 79
-92 83 -236 178 -300 198 -68 20 -190 18 -246 -6 -142 -61 -214 -257 -146
-401 40 -86 74 -115 200 -174 63 -29 200 -94 304 -143 308 -146 315 -148 420
-146 117 3 123 1 92 -37 -31 -36 -59 -110 -80 -210 -40 -185 -94 -507 -113
-662 -7 -65 -24 -79 -24 -20 0 66 -44 272 -58 272 -4 0 -18 -26 -31 -57 -63
-144 -196 -327 -335 -461 l-87 -84 7 -135 c7 -130 6 -135 -12 -130 -22 7 -220
37 -242 37 -12 0 -13 10 -7 53 4 28 9 73 11 98 2 26 8 75 13 110 6 35 11 107
11 160 0 165 -60 305 -184 432 -64 64 -114 93 -237 134 -73 24 -99 28 -204 28
-66 0 -142 -4 -169 -8 l-49 -9 8 179 c4 98 9 194 10 213 6 69 56 334 79 424
35 134 133 420 171 501 18 39 52 111 75 160 87 186 205 367 355 541 l35 41
-29 54 c-81 149 -87 434 -12 593 15 34 39 84 51 113 13 29 36 65 53 80 l29 28
-27 -54 c-36 -72 -71 -195 -85 -299 -19 -141 5 -265 77 -405 100 -191 313
-335 524 -353 35 -3 150 -1 254 5 105 5 332 17 505 25 173 8 358 18 410 21 52
3 176 8 275 10 271 6 994 34 1045 40 123 16 234 80 283 163 17 29 17 30 -3 25
-12 -3 -31 5 -51 21 -21 18 -42 26 -67 26 -46 0 -59 -8 -80 -50 -9 -18 -26
-39 -38 -47 -18 -12 -24 -11 -47 7 -15 12 -48 48 -73 81 l-46 60 -23 -21 c-29
-27 -82 -42 -125 -35 -33 6 -40 2 -79 -40 -36 -39 -48 -46 -74 -43 -29 3 -34
9 -57 70 -15 37 -29 71 -33 75 -4 3 -32 5 -62 4 -36 -2 -55 2 -55 9 0 21 -17
1 -65 -79 -68 -112 -80 -114 -129 -16 -26 50 -46 70 -46 46 0 -28 -117 -37
-196 -15 -17 4 -31 -7 -74 -61 -73 -92 -84 -88 -135 40 -47 119 -41 109 -56
99 -22 -13 -59 -11 -59 5 0 11 -4 10 -19 -3 -17 -16 -25 -16 -57 -6 -32 11
-89 10 -133 -1 -12 -3 -51 49 -64 84 -1 5 -27 2 -57 -6 -30 -9 -81 -21 -113
-27 -53 -11 -60 -15 -73 -46 -13 -31 -18 -34 -57 -34 -23 0 -71 -5 -106 -10
-55 -10 -66 -9 -83 7 -34 31 -19 52 62 84 41 17 108 46 148 65 40 19 77 34 81
34 5 0 32 12 61 27 96 50 127 48 280 -14 74 -31 143 -61 153 -68 10 -7 26 -11
36 -8 9 2 78 -19 152 -47 74 -28 149 -55 166 -60 33 -8 108 3 128 19 15 13
218 81 246 82 13 1 37 -3 52 -10 16 -6 33 -9 38 -5 5 3 49 -6 97 -20 206 -60
270 -65 302 -25 16 20 223 67 450 104 135 22 137 23 160 47 36 39 24 156 -23
220 -28 38 -45 42 -39 10 3 -16 1 -23 -4 -19 -5 5 -9 14 -9 20 -1 7 -7 11 -15
9 -11 -3 -11 0 0 13 7 8 10 18 6 22 -3 3 -6 0 -6 -8 0 -9 -8 -5 -23 11 -12 14
-34 31 -49 38 -16 6 -48 30 -72 52 -64 59 -141 83 -236 75 -77 -6 -103 -17
-176 -76 -33 -26 -45 -30 -79 -26 -75 9 -222 49 -665 181 -47 14 -123 34 -170
46 -47 11 -99 25 -116 30 -41 13 -44 13 -37 -7 5 -13 2 -15 -11 -10 -10 4 -24
7 -32 7 -24 0 -16 20 9 21 19 1 18 2 -9 14 -42 18 -48 29 -83 123 -41 110 -62
149 -110 204 -70 79 -155 118 -260 118 -79 0 -128 -18 -185 -71 -41 -38 -57
-46 -78 -42 -15 3 -43 0 -64 -7 -36 -12 -37 -12 -74 32 -40 46 -115 89 -203
115 -58 17 -141 11 -195 -14 -67 -32 -157 -139 -182 -215 -6 -21 -16 -38 -23
-38 -6 0 -46 18 -90 41 -68 35 -197 89 -212 89 -9 0 -27 -51 -49 -140 -24 -95
-16 -91 -121 -60 -38 11 -91 20 -116 20 -45 0 -47 -1 -53 -32 -3 -18 -8 -80
-12 -137 l-7 -103 -46 6 c-109 16 -198 18 -221 6 -23 -12 -23 -14 -17 -144 l7
-132 -108 0 c-59 -1 -120 -6 -136 -13 -29 -11 -29 -12 -23 -76 3 -35 13 -92
22 -126 9 -34 14 -67 11 -74 -2 -6 -31 -15 -63 -18 -33 -4 -88 -17 -124 -30
-62 -22 -64 -24 -61 -56 1 -18 18 -74 38 -124 19 -51 36 -98 37 -105 1 -9 -25
-22 -73 -36 -41 -12 -98 -33 -125 -46 -62 -31 -62 -36 4 -173 27 -56 47 -105
45 -109 -3 -4 -35 -17 -71 -28 -70 -22 -149 -66 -158 -88 -7 -20 26 -89 80
-168 l47 -69 -25 -20 c-14 -11 -57 -38 -96 -60 -38 -22 -75 -49 -82 -61 -14
-28 3 -62 83 -161 l61 -74 -87 -82 c-47 -45 -86 -89 -86 -99 0 -20 64 -102
116 -148 22 -19 43 -40 47 -46 4 -7 -15 -35 -43 -65 -62 -67 -93 -125 -79
-150 5 -10 50 -48 99 -85 50 -37 90 -71 90 -76 0 -5 -13 -28 -29 -51 -16 -24
-36 -60 -45 -81 -15 -37 -15 -41 5 -82 19 -40 19 -64 1 -64 -4 0 -18 20 -30
44 -13 24 -37 56 -53 71 l-28 28 -38 -41 c-21 -23 -44 -42 -50 -42 -6 0 -22
13 -35 30 -58 74 -68 89 -68 100 0 6 -8 30 -18 53 -54 124 -70 176 -83 276
-26 191 3 333 110 550 41 84 65 118 133 187 45 46 86 91 91 100 6 10 -7 42
-40 102 -61 111 -71 113 -186 43 -273 -166 -535 -433 -634 -647 -37 -81 -55
-153 -35 -140 14 9 15 -4 2 -24 -6 -10 -10 -11 -10 -2 0 48 -43 -52 -72 -168
-20 -84 -27 -197 -17 -285 5 -49 12 -119 15 -155 8 -107 39 -198 132 -390 25
-52 59 -115 76 -140 39 -59 176 -209 196 -215 8 -3 44 -33 80 -68 36 -35 83
-75 105 -89 74 -46 310 -143 374 -153 14 -2 44 -8 66 -14 120 -30 490 -34 670
-7 167 25 151 28 145 -24 -3 -25 -5 -80 -5 -122 0 -153 46 -174 460 -209 196
-16 272 -16 286 -2 11 11 9 13 -9 13 -12 0 -22 4 -22 9 0 4 10 6 23 4 20 -4
29 5 62 61 21 36 49 75 62 87 22 22 24 22 59 6 l35 -17 17 30 c9 16 24 30 32
30 9 0 22 16 29 36 13 35 15 36 51 30 21 -3 45 -9 54 -12 21 -8 21 10 0 30
-14 15 -2 16 133 16 l149 0 12 -73 c28 -185 109 -342 220 -433 114 -93 190
-113 342 -89 175 28 215 37 257 55 53 23 134 98 170 157 l28 45 60 -6 c125
-12 698 -86 900 -115 39 -6 129 -18 200 -26 72 -9 158 -20 192 -25 43 -7 77
-7 115 1 29 7 55 11 57 11 2 -1 18 -36 35 -79 85 -211 261 -367 429 -380 75
-6 338 37 425 69 81 31 178 130 227 233 28 57 41 75 53 71 10 -3 125 -24 257
-46 132 -23 305 -52 385 -66 200 -35 759 -130 965 -164 94 -16 368 -62 610
-104 242 -41 510 -87 596 -101 l156 -25 99 25 c54 14 129 35 167 46 l67 20 0
48 c0 45 -2 49 -27 53 -121 21 -297 49 -393 63 -63 9 -149 23 -190 30 -71 14
-200 35 -425 69 -55 9 -125 20 -155 26 -30 5 -134 21 -230 34 -160 23 -365 55
-870 137 -335 55 -284 47 -535 84 -60 9 -117 18 -125 21 -27 9 16 25 137 50
63 13 119 27 125 30 5 4 8 53 7 123 l-3 116 47 3 47 3 -2 362 -3 362 -55 12
c-30 6 -74 12 -97 12 -24 1 -43 5 -43 10 0 6 15 8 33 5 17 -3 59 4 92 14 59
18 60 18 63 58 l3 41 -91 11 c-51 6 -98 16 -106 23 -12 10 -14 307 -14 2000
l0 1988 -36 7 c-20 4 -73 3 -118 0 -44 -4 -138 -10 -207 -12 -121 -5 -127 -4
-132 16 -4 16 -13 20 -49 20 -23 0 -59 2 -78 3 -19 2 -84 2 -145 0z m-3315
-439 c0 -8 -5 -12 -10 -9 -6 4 -8 11 -5 16 9 14 15 11 15 -7z m-10 -35 c0 -6
-4 -7 -10 -4 -5 3 -10 11 -10 16 0 6 5 7 10 4 6 -3 10 -11 10 -16z m248 -30
c-11 -7 -10 -11 2 -19 13 -9 13 -11 0 -20 -22 -14 -40 -12 -40 5 0 8 4 15 9
15 5 0 15 15 22 33 11 25 14 28 17 13 2 -10 -2 -23 -10 -27z m82 -30 c11 -83
51 -122 126 -122 33 0 51 6 70 24 31 28 54 77 54 115 0 32 21 27 34 -8 33 -93
-75 -200 -186 -185 -106 14 -196 148 -141 209 24 27 37 17 43 -33z m-626 -4
c-14 -79 52 -165 127 -165 83 0 133 54 132 143 -1 49 9 60 27 28 15 -29 12
-99 -7 -138 -22 -47 -82 -85 -142 -91 -63 -6 -128 23 -167 73 -24 31 -28 47
-29 97 0 51 4 63 24 79 30 25 43 15 35 -26z m1054 -153 c2 -7 -2 -10 -12 -6
-9 3 -16 11 -16 16 0 13 23 5 28 -10z m-978 -102 c0 -5 -4 -10 -10 -10 -5 0
-10 5 -10 10 0 6 5 10 10 10 6 0 10 -4 10 -10z m2619 -1279 c21 -13 6 -43 -52
-100 -75 -75 -144 -118 -192 -119 -22 -1 -51 -10 -65 -20 -14 -11 -44 -29 -67
-40 -22 -12 -43 -29 -45 -39 -7 -25 -103 -55 -195 -61 -67 -4 -73 -3 -73 14 0
53 162 186 330 269 163 82 316 123 359 96z m-4017 -683 c-15 -15 -24 -6 -16
16 5 12 10 14 17 7 8 -8 8 -14 -1 -23z m2821 -266 c42 -46 61 -155 37 -216
-13 -36 -23 -33 -48 19 -13 28 -36 54 -57 66 -33 20 -48 49 -24 49 5 0 17 17
26 38 27 65 39 74 66 44z m-144 -160 c32 -49 38 -116 16 -181 -9 -28 -20 -51
-24 -51 -5 0 -16 20 -25 45 -12 30 -34 58 -69 87 -29 23 -56 45 -60 49 -5 3 3
4 18 1 25 -4 26 -3 14 16 -11 18 -10 24 12 46 28 30 39 32 40 9 0 -15 2 -15
15 4 20 27 33 22 63 -25z m-2782 -74 c-3 -8 -6 -5 -6 6 -1 11 2 17 5 13 3 -3
4 -12 1 -19z m223 -1243 c10 -27 -8 -195 -22 -195 -17 0 -138 183 -138 208 0
8 25 12 75 12 71 0 76 -1 85 -25z m5109 -403 c-1 -38 -2 -42 -9 -22 -12 37
-12 82 0 75 6 -3 10 -27 9 -53z m-4383 -156 c-1 -13 -10 -31 -19 -41 -16 -15
-17 -15 -17 4 0 12 4 21 9 21 5 0 13 9 16 20 9 27 14 25 11 -4z"/>
<path d="M10775 1975 c-5 -1 -65 -16 -132 -31 l-123 -27 0 -49 c0 -52 1 -52
63 -39 23 5 97 17 165 27 l122 18 0 43 c0 23 -3 44 -8 47 -11 7 -76 16 -87 11z"/>
<path d="M10105 1829 c-99 -21 -180 -38 -180 -38 -2 -3 -2 -111 0 -111 1 0 80
19 176 41 96 23 184 44 197 46 19 5 22 12 22 54 0 40 -3 49 -17 48 -10 -1 -99
-19 -198 -40z"/>
<path d="M8326 1758 c-7 -71 -2 -78 61 -78 23 0 75 -4 115 -10 40 -5 136 -16
213 -25 77 -9 150 -18 163 -20 21 -5 22 -3 22 69 l0 74 -117 11 c-65 6 -179
18 -253 26 -209 23 -196 27 -204 -47z"/>
<path d="M9138 1678 c-2 -36 0 -68 6 -75 11 -11 453 -64 469 -56 9 5 9 124 -1
139 -4 6 -35 14 -68 18 -56 6 -380 36 -396 36 -3 0 -8 -28 -10 -62z"/>
<path d="M10080 1640 c-41 -11 -89 -19 -106 -20 -17 0 -44 -4 -60 -9 -16 -5
-41 -12 -56 -15 -23 -5 -28 -12 -28 -36 0 -17 2 -30 4 -30 2 0 68 -7 147 -15
167 -18 351 -37 639 -65 113 -10 221 -22 240 -25 19 -3 85 -10 145 -15 61 -6
173 -17 250 -25 77 -8 148 -15 158 -15 14 0 17 -9 17 -50 0 -38 4 -50 15 -50
12 0 146 35 258 67 18 5 23 46 11 89 -6 23 2 22 -214 50 -63 8 -140 21 -170
29 -30 8 -127 23 -215 34 -88 11 -335 43 -550 71 -214 27 -394 49 -400 49 -5
0 -44 -9 -85 -19z"/>
<path d="M8055 1640 c-19 -31 50 -75 80 -50 22 19 15 30 -30 46 -48 17 -43 16
-50 4z"/>
</g>
</svg>
